<svg xmlns="http://www.w3.org/2000/svg" xmlns:xlink="http://www.w3.org/1999/xlink" width="150" zoomAndPan="magnify" viewBox="0 0 112.5 37.5" height="50" preserveAspectRatio="xMidYMid meet" version="1.0"><defs><g/><clipPath id="0590c37621"><path d="M 4 14 L 29 14 L 29 27 L 4 27 Z M 4 14 " clip-rule="nonzero"/></clipPath><clipPath id="fda7b1003f"><path d="M 22.039062 8.585938 L 39.832031 26.378906 L 22.039062 44.175781 L 4.242188 26.378906 Z M 22.039062 8.585938 " clip-rule="nonzero"/></clipPath><clipPath id="9312d1bdf3"><path d="M 22.039062 8.585938 L 39.832031 26.378906 L 22.039062 44.175781 L 4.242188 26.378906 Z M 22.039062 8.585938 " clip-rule="nonzero"/></clipPath><clipPath id="c2f295a2d2"><path d="M 18 8 L 40 8 L 40 27 L 18 27 Z M 18 8 " clip-rule="nonzero"/></clipPath><clipPath id="f2ff119123"><path d="M 22.039062 8.585938 L 39.832031 26.378906 L 22.039062 44.175781 L 4.242188 26.378906 Z M 22.039062 8.585938 " clip-rule="nonzero"/></clipPath><clipPath id="f4cff1dbae"><path d="M 22.039062 8.585938 L 39.832031 26.378906 L 22.039062 44.175781 L 4.242188 26.378906 Z M 22.039062 8.585938 " clip-rule="nonzero"/></clipPath><clipPath id="e2cc6702d7"><rect x="0" width="62" y="0" height="11"/></clipPath><clipPath id="a064b29a12"><rect x="0" width="51" y="0" height="5"/></clipPath></defs><g clip-path="url(#0590c37621)"><g clip-path="url(#fda7b1003f)"><g clip-path="url(#9312d1bdf3)"><path fill="#ff3131" d="M 16.117188 14.503906 L 4.195312 26.425781 L 12.179688 26.425781 L 16.117188 22.488281 L 20.054688 26.425781 L 28.039062 26.425781 L 16.117188 14.503906 " fill-opacity="1" fill-rule="nonzero"/></g></g></g><g clip-path="url(#c2f295a2d2)"><g clip-path="url(#f2ff119123)"><g clip-path="url(#f4cff1dbae)"><path fill="#61a6ab" d="M 31.898438 26.425781 L 18.046875 12.578125 L 22.039062 8.585938 L 39.878906 26.425781 L 31.898438 26.425781 " fill-opacity="1" fill-rule="evenodd"/></g></g></g><g transform="matrix(1, 0, 0, 1, 41, 12)"><g clip-path="url(#e2cc6702d7)"><g fill="#f6f6e9" fill-opacity="1"><g transform="translate(0.621007, 8.169716)"><g><path d="M 3.21875 0.046875 C 2.6875 0.046875 2.203125 -0.0703125 1.765625 -0.3125 C 1.335938 -0.550781 1.003906 -0.875 0.765625 -1.28125 C 0.523438 -1.695312 0.40625 -2.164062 0.40625 -2.6875 C 0.40625 -3.195312 0.523438 -3.660156 0.765625 -4.078125 C 1.003906 -4.492188 1.335938 -4.820312 1.765625 -5.0625 C 2.203125 -5.300781 2.6875 -5.421875 3.21875 -5.421875 C 3.75 -5.421875 4.226562 -5.300781 4.65625 -5.0625 C 5.082031 -4.820312 5.414062 -4.492188 5.65625 -4.078125 C 5.90625 -3.660156 6.03125 -3.195312 6.03125 -2.6875 C 6.03125 -2.164062 5.90625 -1.695312 5.65625 -1.28125 C 5.414062 -0.863281 5.082031 -0.535156 4.65625 -0.296875 C 4.226562 -0.0664062 3.75 0.046875 3.21875 0.046875 Z M 3.21875 -0.453125 C 3.644531 -0.453125 4.03125 -0.546875 4.375 -0.734375 C 4.71875 -0.929688 4.984375 -1.203125 5.171875 -1.546875 C 5.367188 -1.890625 5.46875 -2.269531 5.46875 -2.6875 C 5.46875 -3.101562 5.367188 -3.476562 5.171875 -3.8125 C 4.984375 -4.15625 4.71875 -4.421875 4.375 -4.609375 C 4.03125 -4.804688 3.644531 -4.90625 3.21875 -4.90625 C 2.789062 -4.90625 2.40625 -4.804688 2.0625 -4.609375 C 1.71875 -4.421875 1.445312 -4.15625 1.25 -3.8125 C 1.050781 -3.476562 0.953125 -3.101562 0.953125 -2.6875 C 0.953125 -2.269531 1.050781 -1.890625 1.25 -1.546875 C 1.445312 -1.203125 1.71875 -0.929688 2.0625 -0.734375 C 2.40625 -0.546875 2.789062 -0.453125 3.21875 -0.453125 Z M 3.21875 -0.453125 "/></g></g></g><g fill="#f6f6e9" fill-opacity="1"><g transform="translate(9.071805, 8.169716)"><g><path d="M 5.34375 -5.375 L 2.96875 0 L 2.40625 0 L 0.015625 -5.375 L 0.640625 -5.375 L 2.6875 -0.703125 L 4.765625 -5.375 Z M 5.34375 -5.375 "/></g></g></g><g fill="#f6f6e9" fill-opacity="1"><g transform="translate(16.440485, 8.169716)"><g><path d="M 4.671875 -0.484375 L 4.671875 0 L 0.875 0 L 0.875 -5.375 L 4.5625 -5.375 L 4.5625 -4.875 L 1.4375 -4.875 L 1.4375 -2.96875 L 4.21875 -2.96875 L 4.21875 -2.484375 L 1.4375 -2.484375 L 1.4375 -0.484375 Z M 4.671875 -0.484375 "/></g></g></g><g fill="#f6f6e9" fill-opacity="1"><g transform="translate(23.586603, 8.169716)"><g><path d="M 4.546875 0 L 3.3125 -1.71875 C 3.175781 -1.707031 3.035156 -1.703125 2.890625 -1.703125 L 1.4375 -1.703125 L 1.4375 0 L 0.875 0 L 0.875 -5.375 L 2.890625 -5.375 C 3.566406 -5.375 4.097656 -5.207031 4.484375 -4.875 C 4.878906 -4.550781 5.078125 -4.101562 5.078125 -3.53125 C 5.078125 -3.113281 4.96875 -2.757812 4.75 -2.46875 C 4.539062 -2.175781 4.238281 -1.96875 3.84375 -1.84375 L 5.15625 0 Z M 2.875 -2.1875 C 3.40625 -2.1875 3.8125 -2.300781 4.09375 -2.53125 C 4.375 -2.769531 4.515625 -3.101562 4.515625 -3.53125 C 4.515625 -3.96875 4.375 -4.300781 4.09375 -4.53125 C 3.8125 -4.757812 3.40625 -4.875 2.875 -4.875 L 1.4375 -4.875 L 1.4375 -2.1875 Z M 2.875 -2.1875 "/></g></g></g><g fill="#f6f6e9" fill-opacity="1"><g transform="translate(31.147151, 8.169716)"><g><path d="M 4.265625 -2.765625 C 4.609375 -2.691406 4.875 -2.539062 5.0625 -2.3125 C 5.257812 -2.082031 5.359375 -1.789062 5.359375 -1.4375 C 5.359375 -0.976562 5.1875 -0.625 4.84375 -0.375 C 4.507812 -0.125 4.007812 0 3.34375 0 L 0.875 0 L 0.875 -5.375 L 3.1875 -5.375 C 3.789062 -5.375 4.253906 -5.253906 4.578125 -5.015625 C 4.910156 -4.773438 5.078125 -4.429688 5.078125 -3.984375 C 5.078125 -3.691406 5.003906 -3.441406 4.859375 -3.234375 C 4.710938 -3.023438 4.515625 -2.867188 4.265625 -2.765625 Z M 1.4375 -4.90625 L 1.4375 -2.953125 L 3.15625 -2.953125 C 3.59375 -2.953125 3.925781 -3.035156 4.15625 -3.203125 C 4.394531 -3.367188 4.515625 -3.609375 4.515625 -3.921875 C 4.515625 -4.242188 4.394531 -4.488281 4.15625 -4.65625 C 3.925781 -4.820312 3.59375 -4.90625 3.15625 -4.90625 Z M 3.34375 -0.46875 C 3.820312 -0.46875 4.179688 -0.546875 4.421875 -0.703125 C 4.671875 -0.867188 4.796875 -1.128906 4.796875 -1.484375 C 4.796875 -2.148438 4.3125 -2.484375 3.34375 -2.484375 L 1.4375 -2.484375 L 1.4375 -0.46875 Z M 3.34375 -0.46875 "/></g></g></g><g fill="#f6f6e9" fill-opacity="1"><g transform="translate(38.94561, 8.169716)"><g><path d="M 4.671875 -0.484375 L 4.671875 0 L 0.875 0 L 0.875 -5.375 L 4.5625 -5.375 L 4.5625 -4.875 L 1.4375 -4.875 L 1.4375 -2.96875 L 4.21875 -2.96875 L 4.21875 -2.484375 L 1.4375 -2.484375 L 1.4375 -0.484375 Z M 4.671875 -0.484375 "/></g></g></g><g fill="#f6f6e9" fill-opacity="1"><g transform="translate(46.091728, 8.169716)"><g><path d="M 4.546875 0 L 3.3125 -1.71875 C 3.175781 -1.707031 3.035156 -1.703125 2.890625 -1.703125 L 1.4375 -1.703125 L 1.4375 0 L 0.875 0 L 0.875 -5.375 L 2.890625 -5.375 C 3.566406 -5.375 4.097656 -5.207031 4.484375 -4.875 C 4.878906 -4.550781 5.078125 -4.101562 5.078125 -3.53125 C 5.078125 -3.113281 4.96875 -2.757812 4.75 -2.46875 C 4.539062 -2.175781 4.238281 -1.96875 3.84375 -1.84375 L 5.15625 0 Z M 2.875 -2.1875 C 3.40625 -2.1875 3.8125 -2.300781 4.09375 -2.53125 C 4.375 -2.769531 4.515625 -3.101562 4.515625 -3.53125 C 4.515625 -3.96875 4.375 -4.300781 4.09375 -4.53125 C 3.8125 -4.757812 3.40625 -4.875 2.875 -4.875 L 1.4375 -4.875 L 1.4375 -2.1875 Z M 2.875 -2.1875 "/></g></g></g><g fill="#f6f6e9" fill-opacity="1"><g transform="translate(53.652276, 8.169716)"><g><path d="M 4.65625 -2.6875 L 5.203125 -2.6875 L 5.203125 -0.640625 C 4.953125 -0.421875 4.65625 -0.25 4.3125 -0.125 C 3.96875 -0.0078125 3.609375 0.046875 3.234375 0.046875 C 2.691406 0.046875 2.207031 -0.0664062 1.78125 -0.296875 C 1.351562 -0.535156 1.015625 -0.863281 0.765625 -1.28125 C 0.523438 -1.695312 0.40625 -2.164062 0.40625 -2.6875 C 0.40625 -3.195312 0.523438 -3.660156 0.765625 -4.078125 C 1.015625 -4.492188 1.351562 -4.820312 1.78125 -5.0625 C 2.207031 -5.300781 2.691406 -5.421875 3.234375 -5.421875 C 3.640625 -5.421875 4.015625 -5.351562 4.359375 -5.21875 C 4.703125 -5.09375 4.992188 -4.898438 5.234375 -4.640625 L 4.875 -4.28125 C 4.457031 -4.695312 3.921875 -4.90625 3.265625 -4.90625 C 2.828125 -4.90625 2.429688 -4.804688 2.078125 -4.609375 C 1.734375 -4.421875 1.457031 -4.15625 1.25 -3.8125 C 1.050781 -3.476562 0.953125 -3.101562 0.953125 -2.6875 C 0.953125 -2.269531 1.050781 -1.890625 1.25 -1.546875 C 1.457031 -1.210938 1.734375 -0.945312 2.078125 -0.75 C 2.421875 -0.550781 2.8125 -0.453125 3.25 -0.453125 C 3.800781 -0.453125 4.269531 -0.59375 4.65625 -0.875 Z M 4.65625 -2.6875 "/></g></g></g></g></g><g transform="matrix(1, 0, 0, 1, 46, 22)"><g clip-path="url(#a064b29a12)"><g fill="#f6f6e9" fill-opacity="1"><g transform="translate(0.980596, 3.627143)"><g><path d="M 1.140625 -2.09375 C 1.316406 -2.09375 1.472656 -2.0625 1.609375 -2 C 1.742188 -1.9375 1.847656 -1.847656 1.921875 -1.734375 C 1.992188 -1.628906 2.03125 -1.5 2.03125 -1.34375 C 2.03125 -1.195312 1.992188 -1.066406 1.921875 -0.953125 C 1.847656 -0.835938 1.742188 -0.75 1.609375 -0.6875 C 1.472656 -0.632812 1.316406 -0.609375 1.140625 -0.609375 L 0.671875 -0.609375 L 0.671875 0 L 0.28125 0 L 0.28125 -2.09375 Z M 1.125 -0.9375 C 1.289062 -0.9375 1.414062 -0.96875 1.5 -1.03125 C 1.59375 -1.101562 1.640625 -1.207031 1.640625 -1.34375 C 1.640625 -1.476562 1.59375 -1.582031 1.5 -1.65625 C 1.414062 -1.726562 1.289062 -1.765625 1.125 -1.765625 L 0.671875 -1.765625 L 0.671875 -0.9375 Z M 1.125 -0.9375 "/></g></g></g><g fill="#f6f6e9" fill-opacity="1"><g transform="translate(3.99915, 3.627143)"><g><path d="M 1.640625 0 L 1.21875 -0.609375 C 1.195312 -0.609375 1.171875 -0.609375 1.140625 -0.609375 L 0.671875 -0.609375 L 0.671875 0 L 0.28125 0 L 0.28125 -2.09375 L 1.140625 -2.09375 C 1.316406 -2.09375 1.472656 -2.0625 1.609375 -2 C 1.742188 -1.9375 1.847656 -1.847656 1.921875 -1.734375 C 1.992188 -1.628906 2.03125 -1.5 2.03125 -1.34375 C 2.03125 -1.1875 1.988281 -1.050781 1.90625 -0.9375 C 1.832031 -0.820312 1.722656 -0.738281 1.578125 -0.6875 L 2.0625 0 Z M 1.640625 -1.34375 C 1.640625 -1.476562 1.59375 -1.582031 1.5 -1.65625 C 1.414062 -1.726562 1.289062 -1.765625 1.125 -1.765625 L 0.671875 -1.765625 L 0.671875 -0.921875 L 1.125 -0.921875 C 1.289062 -0.921875 1.414062 -0.957031 1.5 -1.03125 C 1.59375 -1.101562 1.640625 -1.207031 1.640625 -1.34375 Z M 1.640625 -1.34375 "/></g></g></g><g fill="#f6f6e9" fill-opacity="1"><g transform="translate(7.032643, 3.627143)"><g><path d="M 1.25 0.03125 C 1.039062 0.03125 0.847656 -0.015625 0.671875 -0.109375 C 0.503906 -0.203125 0.367188 -0.328125 0.265625 -0.484375 C 0.171875 -0.648438 0.125 -0.835938 0.125 -1.046875 C 0.125 -1.242188 0.171875 -1.425781 0.265625 -1.59375 C 0.367188 -1.757812 0.503906 -1.890625 0.671875 -1.984375 C 0.847656 -2.078125 1.039062 -2.125 1.25 -2.125 C 1.46875 -2.125 1.660156 -2.078125 1.828125 -1.984375 C 2.003906 -1.890625 2.140625 -1.757812 2.234375 -1.59375 C 2.328125 -1.4375 2.375 -1.253906 2.375 -1.046875 C 2.375 -0.835938 2.328125 -0.648438 2.234375 -0.484375 C 2.140625 -0.328125 2.003906 -0.203125 1.828125 -0.109375 C 1.660156 -0.015625 1.46875 0.03125 1.25 0.03125 Z M 1.25 -0.3125 C 1.394531 -0.3125 1.519531 -0.34375 1.625 -0.40625 C 1.738281 -0.46875 1.828125 -0.550781 1.890625 -0.65625 C 1.953125 -0.769531 1.984375 -0.898438 1.984375 -1.046875 C 1.984375 -1.179688 1.953125 -1.304688 1.890625 -1.421875 C 1.828125 -1.535156 1.738281 -1.625 1.625 -1.6875 C 1.519531 -1.75 1.394531 -1.78125 1.25 -1.78125 C 1.113281 -1.78125 0.988281 -1.75 0.875 -1.6875 C 0.769531 -1.625 0.679688 -1.535156 0.609375 -1.421875 C 0.546875 -1.304688 0.515625 -1.179688 0.515625 -1.046875 C 0.515625 -0.898438 0.546875 -0.769531 0.609375 -0.65625 C 0.679688 -0.550781 0.769531 -0.46875 0.875 -0.40625 C 0.988281 -0.34375 1.113281 -0.3125 1.25 -0.3125 Z M 1.25 -0.3125 "/></g></g></g><g fill="#f6f6e9" fill-opacity="1"><g transform="translate(10.397784, 3.627143)"><g><path d="M 1.140625 -2.09375 C 1.316406 -2.09375 1.472656 -2.0625 1.609375 -2 C 1.742188 -1.9375 1.847656 -1.847656 1.921875 -1.734375 C 1.992188 -1.628906 2.03125 -1.5 2.03125 -1.34375 C 2.03125 -1.195312 1.992188 -1.066406 1.921875 -0.953125 C 1.847656 -0.835938 1.742188 -0.75 1.609375 -0.6875 C 1.472656 -0.632812 1.316406 -0.609375 1.140625 -0.609375 L 0.671875 -0.609375 L 0.671875 0 L 0.28125 0 L 0.28125 -2.09375 Z M 1.125 -0.9375 C 1.289062 -0.9375 1.414062 -0.96875 1.5 -1.03125 C 1.59375 -1.101562 1.640625 -1.207031 1.640625 -1.34375 C 1.640625 -1.476562 1.59375 -1.582031 1.5 -1.65625 C 1.414062 -1.726562 1.289062 -1.765625 1.125 -1.765625 L 0.671875 -1.765625 L 0.671875 -0.9375 Z M 1.125 -0.9375 "/></g></g></g><g fill="#f6f6e9" fill-opacity="1"><g transform="translate(13.416339, 3.627143)"><g><path d="M 1.84375 -0.328125 L 1.84375 0 L 0.28125 0 L 0.28125 -2.09375 L 1.8125 -2.09375 L 1.8125 -1.765625 L 0.671875 -1.765625 L 0.671875 -1.21875 L 1.671875 -1.21875 L 1.671875 -0.90625 L 0.671875 -0.90625 L 0.671875 -0.328125 Z M 1.84375 -0.328125 "/></g></g></g><g fill="#f6f6e9" fill-opacity="1"><g transform="translate(16.267573, 3.627143)"><g><path d="M 1.640625 0 L 1.21875 -0.609375 C 1.195312 -0.609375 1.171875 -0.609375 1.140625 -0.609375 L 0.671875 -0.609375 L 0.671875 0 L 0.28125 0 L 0.28125 -2.09375 L 1.140625 -2.09375 C 1.316406 -2.09375 1.472656 -2.0625 1.609375 -2 C 1.742188 -1.9375 1.847656 -1.847656 1.921875 -1.734375 C 1.992188 -1.628906 2.03125 -1.5 2.03125 -1.34375 C 2.03125 -1.1875 1.988281 -1.050781 1.90625 -0.9375 C 1.832031 -0.820312 1.722656 -0.738281 1.578125 -0.6875 L 2.0625 0 Z M 1.640625 -1.34375 C 1.640625 -1.476562 1.59375 -1.582031 1.5 -1.65625 C 1.414062 -1.726562 1.289062 -1.765625 1.125 -1.765625 L 0.671875 -1.765625 L 0.671875 -0.921875 L 1.125 -0.921875 C 1.289062 -0.921875 1.414062 -0.957031 1.5 -1.03125 C 1.59375 -1.101562 1.640625 -1.207031 1.640625 -1.34375 Z M 1.640625 -1.34375 "/></g></g></g><g fill="#f6f6e9" fill-opacity="1"><g transform="translate(19.301067, 3.627143)"><g><path d="M 0.703125 -1.765625 L 0.015625 -1.765625 L 0.015625 -2.09375 L 1.78125 -2.09375 L 1.78125 -1.765625 L 1.09375 -1.765625 L 1.09375 0 L 0.703125 0 Z M 0.703125 -1.765625 "/></g></g></g><g fill="#f6f6e9" fill-opacity="1"><g transform="translate(21.94913, 3.627143)"><g><path d="M 1.1875 -0.734375 L 1.1875 0 L 0.796875 0 L 0.796875 -0.734375 L -0.03125 -2.09375 L 0.390625 -2.09375 L 1 -1.078125 L 1.625 -2.09375 L 2 -2.09375 Z M 1.1875 -0.734375 "/></g></g></g><g fill="#f6f6e9" fill-opacity="1"><g transform="translate(24.773475, 3.627143)"><g/></g></g><g fill="#f6f6e9" fill-opacity="1"><g transform="translate(26.447508, 3.627143)"><g><path d="M 1.640625 -0.484375 L 0.59375 -0.484375 L 0.390625 0 L -0.015625 0 L 0.921875 -2.09375 L 1.3125 -2.09375 L 2.25 0 L 1.84375 0 Z M 1.5 -0.78125 L 1.109375 -1.703125 L 0.71875 -0.78125 Z M 1.5 -0.78125 "/></g></g></g><g fill="#f6f6e9" fill-opacity="1"><g transform="translate(29.534783, 3.627143)"><g><path d="M 2.140625 -2.09375 L 2.140625 0 L 1.8125 0 L 0.671875 -1.421875 L 0.671875 0 L 0.28125 0 L 0.28125 -2.09375 L 0.59375 -2.09375 L 1.75 -0.671875 L 1.75 -2.09375 Z M 2.140625 -2.09375 "/></g></g></g><g fill="#f6f6e9" fill-opacity="1"><g transform="translate(32.804314, 3.627143)"><g><path d="M 1.640625 -0.484375 L 0.59375 -0.484375 L 0.390625 0 L -0.015625 0 L 0.921875 -2.09375 L 1.3125 -2.09375 L 2.25 0 L 1.84375 0 Z M 1.5 -0.78125 L 1.109375 -1.703125 L 0.71875 -0.78125 Z M 1.5 -0.78125 "/></g></g></g><g fill="#f6f6e9" fill-opacity="1"><g transform="translate(35.891589, 3.627143)"><g><path d="M 0.28125 -2.09375 L 0.671875 -2.09375 L 0.671875 -0.328125 L 1.765625 -0.328125 L 1.765625 0 L 0.28125 0 Z M 0.28125 -2.09375 "/></g></g></g><g fill="#f6f6e9" fill-opacity="1"><g transform="translate(38.530691, 3.627143)"><g><path d="M 1.1875 -0.734375 L 1.1875 0 L 0.796875 0 L 0.796875 -0.734375 L -0.03125 -2.09375 L 0.390625 -2.09375 L 1 -1.078125 L 1.625 -2.09375 L 2 -2.09375 Z M 1.1875 -0.734375 "/></g></g></g><g fill="#f6f6e9" fill-opacity="1"><g transform="translate(41.355036, 3.627143)"><g><path d="M 1.90625 -0.328125 L 1.90625 0 L 0.125 0 L 0.125 -0.265625 L 1.359375 -1.765625 L 0.140625 -1.765625 L 0.140625 -2.09375 L 1.859375 -2.09375 L 1.859375 -1.828125 L 0.640625 -0.328125 Z M 1.90625 -0.328125 "/></g></g></g><g fill="#f6f6e9" fill-opacity="1"><g transform="translate(44.185358, 3.627143)"><g><path d="M 1.84375 -0.328125 L 1.84375 0 L 0.28125 0 L 0.28125 -2.09375 L 1.8125 -2.09375 L 1.8125 -1.765625 L 0.671875 -1.765625 L 0.671875 -1.21875 L 1.671875 -1.21875 L 1.671875 -0.90625 L 0.671875 -0.90625 L 0.671875 -0.328125 Z M 1.84375 -0.328125 "/></g></g></g><g fill="#f6f6e9" fill-opacity="1"><g transform="translate(47.036593, 3.627143)"><g><path d="M 1.640625 0 L 1.21875 -0.609375 C 1.195312 -0.609375 1.171875 -0.609375 1.140625 -0.609375 L 0.671875 -0.609375 L 0.671875 0 L 0.28125 0 L 0.28125 -2.09375 L 1.140625 -2.09375 C 1.316406 -2.09375 1.472656 -2.0625 1.609375 -2 C 1.742188 -1.9375 1.847656 -1.847656 1.921875 -1.734375 C 1.992188 -1.628906 2.03125 -1.5 2.03125 -1.34375 C 2.03125 -1.1875 1.988281 -1.050781 1.90625 -0.9375 C 1.832031 -0.820312 1.722656 -0.738281 1.578125 -0.6875 L 2.0625 0 Z M 1.640625 -1.34375 C 1.640625 -1.476562 1.59375 -1.582031 1.5 -1.65625 C 1.414062 -1.726562 1.289062 -1.765625 1.125 -1.765625 L 0.671875 -1.765625 L 0.671875 -0.921875 L 1.125 -0.921875 C 1.289062 -0.921875 1.414062 -0.957031 1.5 -1.03125 C 1.59375 -1.101562 1.640625 -1.207031 1.640625 -1.34375 Z M 1.640625 -1.34375 "/></g></g></g></g></g></svg>
